<svg xmlns="http://www.w3.org/2000/svg" width="500" height="500" style="width:100%;height:100%;transform:translate3d(0,0,0);content-visibility:visible" viewBox="0 0 500 500"><defs><mask id="e" mask-type="alpha"><use xmlns:ns1="http://www.w3.org/1999/xlink" ns1:href="#a"/></mask><mask id="d" mask-type="alpha"><use xmlns:ns2="http://www.w3.org/1999/xlink" ns2:href="#b"/></mask><g id="a" style="display:block"><path fill="red" d="M410.875 383.999H89v-268.5h321.875v268.5z"/><path fill-opacity="0" stroke="#FFF" stroke-linecap="round" stroke-linejoin="round" stroke-width="12.88" d="M410.875 383.999H89v-268.5h321.875v268.5z"/></g><g id="b" style="display:block"><path fill="red" d="M410.875 383.999H89v-268.5h321.875v268.5z"/><path fill-opacity="0" stroke="#FFF" stroke-linecap="round" stroke-linejoin="round" stroke-width="12.88" d="M410.875 383.999H89v-268.5h321.875v268.5z"/></g><clipPath id="c"><path d="M0 0h500v500H0z"/></clipPath></defs><g clip-path="url(#c)"><path fill="none" stroke="#FFF" stroke-linecap="round" stroke-linejoin="round" stroke-width="3.5" d="M39.031-12.981a8.372 8.372 0 0 1-8.372 8.372 8.372 8.372 0 0 1-8.372-8.372 8.372 8.372 0 0 1 8.372-8.372 8.372 8.372 0 0 1 8.372 8.372z" style="display:block" transform="matrix(3.68 0 0 3.68 201.538 234.34)"/><path fill="none" stroke="#FFF" stroke-linecap="round" stroke-linejoin="round" stroke-width="3.5" d="m7.804 36.405 14.08-24.341 14.232 24.361" style="display:block" transform="matrix(3.68 0 0 3.68 249.54 248.84)"/><g mask="url(#d)" style="display:block"><path fill="none" stroke="#FFF" stroke-linecap="round" stroke-linejoin="round" stroke-width="12.88" d="m422.257 382.693 51.815-89.575 52.373 89.648"/></g><g mask="url(#e)" style="display:block"><path fill="none" stroke="#FFF" stroke-linecap="round" stroke-linejoin="round" stroke-width="12.88" d="m118.83 382.505 106.183-182.58 79.433 136.459"/></g><path fill="none" stroke="#FFF" stroke-linecap="round" stroke-linejoin="round" stroke-width="3.5" d="M43.341 36.728h-87.466v-72.962h87.466v72.962z" style="display:block" transform="matrix(3.68 0 0 3.68 251.38 248.84)"/><g class="com" style="display:none"><path/><path/><path/><path/><path/><path/><path/><path/><path/><path/><path/><path/></g></g></svg>